#Produced by Gokhan-Bariscan-Mali, Tue Apr 09 16:18:49 EEST 2013
g Cylinder_1
v -1.73 -25.08 0
v 1.27 -25.08 0
v 1.21236 -25.08 -0.58527
v 1.04164 -25.08 -1.14805
v 0.76441 -25.08 -1.66671
v 0.39132 -25.08 -2.12132
v -0.06329 -25.08 -2.49441
v -0.58195 -25.08 -2.77164
v -1.14473 -25.08 -2.94236
v -1.73 -25.08 -3
v -2.31527 -25.08 -2.94236
v -2.87805 -25.08 -2.77164
v -3.39671 -25.08 -2.49441
v -3.85132 -25.08 -2.12132
v -4.22441 -25.08 -1.66671
v -4.50164 -25.08 -1.14805
v -4.67236 -25.08 -0.58527
v -4.73 -25.08 0
v -4.67236 -25.08 0.58527
v -4.50164 -25.08 1.14805
v -4.22441 -25.08 1.66671
v -3.85132 -25.08 2.12132
v -3.39671 -25.08 2.49441
v -2.87805 -25.08 2.77164
v -2.31527 -25.08 2.94236
v -1.73 -25.08 3
v -1.14473 -25.08 2.94236
v -0.58195 -25.08 2.77164
v -0.06329 -25.08 2.49441
v 0.39132 -25.08 2.12132
v 0.76441 -25.08 1.66671
v 1.04164 -25.08 1.14805
v 1.21236 -25.08 0.58527
v 1.27 24.92 0
v 1.21236 24.92 -0.58527
v 1.04164 24.92 -1.14805
v 0.76441 24.92 -1.66671
v 0.39132 24.92 -2.12132
v -0.06329 24.92 -2.49441
v -0.58195 24.92 -2.77164
v -1.14473 24.92 -2.94236
v -1.73 24.92 -3
v -2.31527 24.92 -2.94236
v -2.87805 24.92 -2.77164
v -3.39671 24.92 -2.49441
v -3.85132 24.92 -2.12132
v -4.22441 24.92 -1.66671
v -4.50164 24.92 -1.14805
v -4.67236 24.92 -0.58527
v -4.73 24.92 0
v -4.67236 24.92 0.58527
v -4.50164 24.92 1.14805
v -4.22441 24.92 1.66671
v -3.85132 24.92 2.12132
v -3.39671 24.92 2.49441
v -2.87805 24.92 2.77164
v -2.31527 24.92 2.94236
v -1.73 24.92 3
v -1.14473 24.92 2.94236
v -0.58195 24.92 2.77164
v -0.06329 24.92 2.49441
v 0.39132 24.92 2.12132
v 0.76441 24.92 1.66671
v 1.04164 24.92 1.14805
v 1.21236 24.92 0.58527
v -1.73 24.92 0
vn 0 -1 0
vn 0 -1 0
vn 1 0 0
vn 0 -1 0
vn 0.98079 0 -0.19509
vn 0 -1 0
vn 0.92388 0 -0.38268
vn 0 -1 0
vn 0.83147 0 -0.55557
vn 0 -1 0
vn 0.70711 0 -0.70711
vn 0 -1 0
vn 0.55557 0 -0.83147
vn 0 -1 0
vn 0.38268 0 -0.92388
vn 0 -1 0
vn 0.19509 0 -0.98079
vn 0 -1 0
vn -0 0 -1
vn 0 -1 0
vn -0.19509 0 -0.98079
vn 0 -1 0
vn -0.38268 0 -0.92388
vn 0 -1 0
vn -0.55557 0 -0.83147
vn 0 -1 0
vn -0.70711 0 -0.70711
vn 0 -1 0
vn -0.83147 0 -0.55557
vn 0 -1 0
vn -0.92388 0 -0.38268
vn 0 -1 0
vn -0.98079 0 -0.19509
vn 0 -1 0
vn -1 0 0
vn 0 -1 0
vn -0.98079 0 0.19509
vn 0 -1 0
vn -0.92388 0 0.38268
vn 0 -1 0
vn -0.83147 0 0.55557
vn 0 -1 0
vn -0.70711 0 0.70711
vn 0 -1 0
vn -0.55557 0 0.83147
vn 0 -1 0
vn -0.38268 0 0.92388
vn 0 -1 0
vn -0.19509 0 0.98079
vn 0 -1 0
vn -0 0 1
vn 0 -1 0
vn 0.19509 0 0.98079
vn 0 -1 0
vn 0.38268 0 0.92388
vn 0 -1 0
vn 0.55557 0 0.83147
vn 0 -1 0
vn 0.70711 0 0.70711
vn 0 -1 0
vn 0.83147 0 0.55557
vn 0 -1 0
vn 0.92388 0 0.38268
vn 0 -1 0
vn 0.98079 0 0.19509
vn 0 1 0
vn 1 0 0
vn 0 1 0
vn 0.98079 0 -0.19509
vn 0 1 0
vn 0.92388 0 -0.38268
vn 0 1 0
vn 0.83147 0 -0.55557
vn 0 1 0
vn 0.70711 0 -0.70711
vn 0 1 0
vn 0.55557 0 -0.83147
vn 0 1 0
vn 0.38268 0 -0.92388
vn 0 1 0
vn 0.19509 0 -0.98079
vn 0 1 0
vn 0 0 -1
vn 0 1 0
vn -0.19509 0 -0.98079
vn 0 1 0
vn -0.38268 0 -0.92388
vn 0 1 0
vn -0.55557 0 -0.83147
vn 0 1 0
vn -0.70711 0 -0.70711
vn 0 1 0
vn -0.83147 0 -0.55557
vn 0 1 0
vn -0.92388 0 -0.38268
vn 0 1 0
vn -0.98079 0 -0.19509
vn 0 1 0
vn -1 0 -0
vn 0 1 0
vn -0.98079 0 0.19509
vn 0 1 0
vn -0.92388 0 0.38268
vn 0 1 0
vn -0.83147 0 0.55557
vn 0 1 0
vn -0.70711 0 0.70711
vn 0 1 0
vn -0.55557 0 0.83147
vn 0 1 0
vn -0.38268 0 0.92388
vn 0 1 0
vn -0.19509 0 0.98079
vn 0 1 0
vn -0 0 1
vn 0 1 0
vn 0.19509 0 0.98079
vn 0 1 0
vn 0.38268 0 0.92388
vn 0 1 0
vn 0.55557 0 0.83147
vn 0 1 0
vn 0.70711 0 0.70711
vn 0 1 0
vn 0.83147 0 0.55557
vn 0 1 0
vn 0.92388 0 0.38268
vn 0 1 0
vn 0.98079 0 0.19509
vn 0 1 0
f 3//4 2//2 1//1
f 4//6 3//4 1//1
f 5//8 4//6 1//1
f 6//10 5//8 1//1
f 7//12 6//10 1//1
f 8//14 7//12 1//1
f 9//16 8//14 1//1
f 10//18 9//16 1//1
f 11//20 10//18 1//1
f 12//22 11//20 1//1
f 13//24 12//22 1//1
f 14//26 13//24 1//1
f 15//28 14//26 1//1
f 16//30 15//28 1//1
f 17//32 16//30 1//1
f 18//34 17//32 1//1
f 19//36 18//34 1//1
f 20//38 19//36 1//1
f 21//40 20//38 1//1
f 22//42 21//40 1//1
f 23//44 22//42 1//1
f 24//46 23//44 1//1
f 25//48 24//46 1//1
f 26//50 25//48 1//1
f 27//52 26//50 1//1
f 28//54 27//52 1//1
f 29//56 28//54 1//1
f 30//58 29//56 1//1
f 31//60 30//58 1//1
f 32//62 31//60 1//1
f 33//64 32//62 1//1
f 2//2 33//64 1//1
f 34//67 2//3 3//5
f 35//69 3//5 4//7
f 36//71 4//7 5//9
f 37//73 5//9 6//11
f 38//75 6//11 7//13
f 39//77 7//13 8//15
f 40//79 8//15 9//17
f 41//81 9//17 10//19
f 42//83 10//19 11//21
f 43//85 11//21 12//23
f 44//87 12//23 13//25
f 45//89 13//25 14//27
f 46//91 14//27 15//29
f 47//93 15//29 16//31
f 48//95 16//31 17//33
f 49//97 17//33 18//35
f 50//99 18//35 19//37
f 51//101 19//37 20//39
f 52//103 20//39 21//41
f 53//105 21//41 22//43
f 54//107 22//43 23//45
f 55//109 23//45 24//47
f 56//111 24//47 25//49
f 57//113 25//49 26//51
f 58//115 26//51 27//53
f 59//117 27//53 28//55
f 60//119 28//55 29//57
f 61//121 29//57 30//59
f 62//123 30//59 31//61
f 63//125 31//61 32//63
f 64//127 32//63 33//65
f 65//129 33//65 2//3
f 34//67 3//5 35//69
f 35//69 4//7 36//71
f 36//71 5//9 37//73
f 37//73 6//11 38//75
f 38//75 7//13 39//77
f 39//77 8//15 40//79
f 40//79 9//17 41//81
f 41//81 10//19 42//83
f 42//83 11//21 43//85
f 43//85 12//23 44//87
f 44//87 13//25 45//89
f 45//89 14//27 46//91
f 46//91 15//29 47//93
f 47//93 16//31 48//95
f 48//95 17//33 49//97
f 49//97 18//35 50//99
f 50//99 19//37 51//101
f 51//101 20//39 52//103
f 52//103 21//41 53//105
f 53//105 22//43 54//107
f 54//107 23//45 55//109
f 55//109 24//47 56//111
f 56//111 25//49 57//113
f 57//113 26//51 58//115
f 58//115 27//53 59//117
f 59//117 28//55 60//119
f 60//119 29//57 61//121
f 61//121 30//59 62//123
f 62//123 31//61 63//125
f 63//125 32//63 64//127
f 64//127 33//65 65//129
f 65//129 2//3 34//67
f 66//130 34//66 35//68
f 66//130 35//68 36//70
f 66//130 36//70 37//72
f 66//130 37//72 38//74
f 66//130 38//74 39//76
f 66//130 39//76 40//78
f 66//130 40//78 41//80
f 66//130 41//80 42//82
f 66//130 42//82 43//84
f 66//130 43//84 44//86
f 66//130 44//86 45//88
f 66//130 45//88 46//90
f 66//130 46//90 47//92
f 66//130 47//92 48//94
f 66//130 48//94 49//96
f 66//130 49//96 50//98
f 66//130 50//98 51//100
f 66//130 51//100 52//102
f 66//130 52//102 53//104
f 66//130 53//104 54//106
f 66//130 54//106 55//108
f 66//130 55//108 56//110
f 66//130 56//110 57//112
f 66//130 57//112 58//114
f 66//130 58//114 59//116
f 66//130 59//116 60//118
f 66//130 60//118 61//120
f 66//130 61//120 62//122
f 66//130 62//122 63//124
f 66//130 63//124 64//126
f 66//130 64//126 65//128
f 66//130 65//128 34//66
